<?xml version="1.0" standalone="no"?>
<!DOCTYPE svg PUBLIC "-//W3C//DTD SVG 20010904//EN"
 "http://www.w3.org/TR/2001/REC-SVG-20010904/DTD/svg10.dtd">
<svg version="1.0" xmlns="http://www.w3.org/2000/svg"
 width="804.000000pt" height="638.000000pt" viewBox="0 0 804.000000 638.000000"
 preserveAspectRatio="xMidYMid meet">
<metadata>
Created by potrace 1.16, written by Peter Selinger 2001-2019
</metadata>
<g transform="translate(0.000000,638.000000) scale(0.100000,-0.100000)"
fill="#000000" stroke="none">
<path d="M2810 6110 l0 -270 170 0 170 0 0 120 0 120 1300 0 1300 0 0 -260 0
-260 275 0 275 0 0 -1885 0 -1884 -72 -3 -73 -3 -3 -162 -2 -163 240 0 240 0
0 2131 0 2130 -147 142 c-81 78 -227 220 -323 314 -97 95 -185 179 -195 188
-17 12 -221 14 -1587 15 l-1568 0 0 -270z"/>
<path d="M2140 5435 l0 -285 165 0 165 0 0 120 0 120 1300 0 1300 0 0 -260 0
-260 275 0 275 0 0 -1885 0 -1884 -72 -3 -73 -3 -3 -163 -2 -162 240 0 240 0
0 2133 -1 2132 -352 342 -352 342 -1552 1 -1553 0 0 -285z"/>
<path d="M1490 2485 l0 -2475 1910 0 1910 0 0 2129 0 2129 -342 333 c-189 184
-347 340 -351 346 -6 10 -326 13 -1567 13 l-1560 0 0 -2475z m2935 1882 l0
-257 273 0 272 0 0 -1885 0 -1885 -1575 0 -1575 0 0 2145 0 2145 1303 -2 1302
-3 0 -258z"/>
<path d="M2301 3574 c-61 -51 -64 -150 -5 -205 l26 -24 1066 -3 c1030 -2 1068
-1 1098 17 32 20 64 74 64 111 0 32 -29 88 -58 110 -24 20 -45 20 -1093 20
l-1067 0 -31 -26z"/>
<path d="M2292 2942 c-54 -51 -53 -150 4 -203 l26 -24 1065 -3 c1055 -2 1066
-2 1098 18 36 22 65 73 65 114 0 39 -35 100 -65 114 -20 9 -286 12 -1094 12
l-1069 0 -30 -28z"/>
<path d="M2343 2389 c-100 -29 -121 -177 -34 -236 l34 -23 1051 0 c981 0 1053
1 1085 18 95 48 89 184 -10 234 -32 17 -102 18 -1064 17 -592 0 -1043 -5
-1062 -10z"/>
<path d="M2343 1763 c-38 -7 -80 -55 -87 -99 -9 -52 11 -111 47 -138 l28 -21
1068 0 c1204 0 1103 -7 1136 80 31 79 -6 153 -84 175 -35 10 -2059 12 -2108 3z"/>
<path d="M2253 1136 c-34 -31 -37 -38 -37 -89 -1 -61 20 -101 65 -124 19 -10
263 -13 1088 -13 l1064 0 33 35 c58 61 54 148 -7 200 l-31 25 -1069 0 -1069 0
-37 -34z"/>
</g>
</svg>
